<mxfile host="Electron" modified="2023-10-28T21:28:29.274Z" agent="Mozilla/5.0 (Windows NT 10.0; Win64; x64) AppleWebKit/537.36 (KHTML, like Gecko) draw.io/22.0.0 Chrome/114.0.5735.289 Electron/25.8.3 Safari/537.36" etag="_0NH49Tz3hexZyNNV42Y" version="22.0.0" type="device">
  <diagram name="Page-1" id="DAyJR1ht-XM-JNpy5594">
    <mxGraphModel dx="2654" dy="1672" grid="1" gridSize="10" guides="1" tooltips="1" connect="1" arrows="1" fold="1" page="1" pageScale="1" pageWidth="2336" pageHeight="1654" math="0" shadow="0">
      <root>
        <mxCell id="0" />
        <mxCell id="1" parent="0" />
        <mxCell id="N-FIcMtjWyn3FwL9XCdM-2" value="" style="shape=flexArrow;endArrow=classic;startArrow=classic;html=1;rounded=0;strokeWidth=7;width=130.58823529411765;startSize=22.666666666666668;endSize=22.666666666666668;startWidth=0;endWidth=0;" edge="1" parent="1">
          <mxGeometry width="100" height="100" relative="1" as="geometry">
            <mxPoint x="80" y="680" as="sourcePoint" />
            <mxPoint x="1690" y="680" as="targetPoint" />
          </mxGeometry>
        </mxCell>
        <mxCell id="N-FIcMtjWyn3FwL9XCdM-3" value="&lt;font style=&quot;font-size: 65px;&quot;&gt;PRÉ-PRODUÇÃO&lt;/font&gt;" style="edgeLabel;html=1;align=center;verticalAlign=middle;resizable=0;points=[];" vertex="1" connectable="0" parent="N-FIcMtjWyn3FwL9XCdM-2">
          <mxGeometry x="-0.1233" y="-1" relative="1" as="geometry">
            <mxPoint x="144" y="-1" as="offset" />
          </mxGeometry>
        </mxCell>
        <mxCell id="N-FIcMtjWyn3FwL9XCdM-4" value="&lt;font style=&quot;font-size: 36px;&quot;&gt;Focada no desenvolvimento da solução: plano de investigação, narrativa de jogo e conceptualização do protagonista&lt;/font&gt;" style="text;html=1;strokeColor=none;fillColor=none;align=center;verticalAlign=middle;whiteSpace=wrap;rounded=0;" vertex="1" parent="1">
          <mxGeometry x="500" y="770" width="920" height="140" as="geometry" />
        </mxCell>
        <mxCell id="N-FIcMtjWyn3FwL9XCdM-19" style="edgeStyle=orthogonalEdgeStyle;rounded=0;orthogonalLoop=1;jettySize=auto;html=1;exitX=1;exitY=0.5;exitDx=0;exitDy=0;entryX=0;entryY=0.5;entryDx=0;entryDy=0;" edge="1" parent="1" source="N-FIcMtjWyn3FwL9XCdM-5" target="N-FIcMtjWyn3FwL9XCdM-8">
          <mxGeometry relative="1" as="geometry" />
        </mxCell>
        <mxCell id="N-FIcMtjWyn3FwL9XCdM-5" value="Análise de literatura:&lt;br&gt;- Empatia;&lt;br&gt;- Depressão;&lt;br&gt;- Jogo digital.&lt;br&gt;&lt;br&gt;Pesquisa de jogos:&amp;nbsp;&lt;br&gt;- Aventura point-and-click;&lt;br&gt;- Temática de depressão/suicídio.&amp;nbsp;" style="rounded=1;whiteSpace=wrap;html=1;" vertex="1" parent="1">
          <mxGeometry x="80" y="80" width="170" height="210" as="geometry" />
        </mxCell>
        <mxCell id="N-FIcMtjWyn3FwL9XCdM-6" value="" style="endArrow=classic;startArrow=classic;html=1;rounded=0;" edge="1" parent="1">
          <mxGeometry width="50" height="50" relative="1" as="geometry">
            <mxPoint x="70" y="40" as="sourcePoint" />
            <mxPoint x="840" y="40" as="targetPoint" />
          </mxGeometry>
        </mxCell>
        <mxCell id="N-FIcMtjWyn3FwL9XCdM-7" value="&lt;font style=&quot;font-size: 18px;&quot;&gt;PLANO DE INVESTIGAÇÃO&lt;/font&gt;" style="edgeLabel;html=1;align=center;verticalAlign=middle;resizable=0;points=[];" vertex="1" connectable="0" parent="N-FIcMtjWyn3FwL9XCdM-6">
          <mxGeometry x="0.2599" y="-2" relative="1" as="geometry">
            <mxPoint x="-99" y="-22" as="offset" />
          </mxGeometry>
        </mxCell>
        <mxCell id="N-FIcMtjWyn3FwL9XCdM-20" style="edgeStyle=orthogonalEdgeStyle;rounded=0;orthogonalLoop=1;jettySize=auto;html=1;exitX=1;exitY=0.5;exitDx=0;exitDy=0;entryX=0;entryY=0.5;entryDx=0;entryDy=0;" edge="1" parent="1" source="N-FIcMtjWyn3FwL9XCdM-8" target="N-FIcMtjWyn3FwL9XCdM-9">
          <mxGeometry relative="1" as="geometry" />
        </mxCell>
        <mxCell id="N-FIcMtjWyn3FwL9XCdM-8" value="Desenvolvimento: plano de investigação." style="rounded=1;whiteSpace=wrap;html=1;" vertex="1" parent="1">
          <mxGeometry x="270" y="80" width="170" height="210" as="geometry" />
        </mxCell>
        <mxCell id="N-FIcMtjWyn3FwL9XCdM-21" style="edgeStyle=orthogonalEdgeStyle;rounded=0;orthogonalLoop=1;jettySize=auto;html=1;exitX=1;exitY=0.5;exitDx=0;exitDy=0;entryX=0;entryY=0.5;entryDx=0;entryDy=0;" edge="1" parent="1" source="N-FIcMtjWyn3FwL9XCdM-9" target="N-FIcMtjWyn3FwL9XCdM-10">
          <mxGeometry relative="1" as="geometry" />
        </mxCell>
        <mxCell id="N-FIcMtjWyn3FwL9XCdM-9" value="Testagem: plano de investigação refinado pelo aluno e equipa de orientação." style="rounded=1;whiteSpace=wrap;html=1;" vertex="1" parent="1">
          <mxGeometry x="460" y="80" width="170" height="210" as="geometry" />
        </mxCell>
        <mxCell id="N-FIcMtjWyn3FwL9XCdM-22" style="edgeStyle=orthogonalEdgeStyle;rounded=0;orthogonalLoop=1;jettySize=auto;html=1;exitX=1;exitY=0.5;exitDx=0;exitDy=0;entryX=0;entryY=0.5;entryDx=0;entryDy=0;strokeWidth=6;" edge="1" parent="1" source="N-FIcMtjWyn3FwL9XCdM-10" target="N-FIcMtjWyn3FwL9XCdM-11">
          <mxGeometry relative="1" as="geometry" />
        </mxCell>
        <mxCell id="N-FIcMtjWyn3FwL9XCdM-10" value="Reflexão: plano de investigação aceite." style="rounded=1;whiteSpace=wrap;html=1;" vertex="1" parent="1">
          <mxGeometry x="650" y="80" width="170" height="210" as="geometry" />
        </mxCell>
        <mxCell id="N-FIcMtjWyn3FwL9XCdM-23" style="edgeStyle=orthogonalEdgeStyle;rounded=0;orthogonalLoop=1;jettySize=auto;html=1;exitX=1;exitY=0.5;exitDx=0;exitDy=0;entryX=0;entryY=0.5;entryDx=0;entryDy=0;" edge="1" parent="1" source="N-FIcMtjWyn3FwL9XCdM-11" target="N-FIcMtjWyn3FwL9XCdM-12">
          <mxGeometry relative="1" as="geometry" />
        </mxCell>
        <mxCell id="N-FIcMtjWyn3FwL9XCdM-11" value="Análise de literatura:&lt;br&gt;- Caracterização de personagem;&lt;br&gt;- Jogo digital.&lt;br&gt;" style="rounded=1;whiteSpace=wrap;html=1;" vertex="1" parent="1">
          <mxGeometry x="860" y="80" width="170" height="210" as="geometry" />
        </mxCell>
        <mxCell id="N-FIcMtjWyn3FwL9XCdM-24" style="edgeStyle=orthogonalEdgeStyle;rounded=0;orthogonalLoop=1;jettySize=auto;html=1;exitX=1;exitY=0.5;exitDx=0;exitDy=0;entryX=0;entryY=0.5;entryDx=0;entryDy=0;" edge="1" parent="1" source="N-FIcMtjWyn3FwL9XCdM-12" target="N-FIcMtjWyn3FwL9XCdM-13">
          <mxGeometry relative="1" as="geometry" />
        </mxCell>
        <mxCell id="N-FIcMtjWyn3FwL9XCdM-12" value="Desenvolvimento: primeira narrativa de jogo e conceptualização do protagonista." style="rounded=1;whiteSpace=wrap;html=1;" vertex="1" parent="1">
          <mxGeometry x="1050" y="80" width="170" height="210" as="geometry" />
        </mxCell>
        <mxCell id="N-FIcMtjWyn3FwL9XCdM-25" style="edgeStyle=orthogonalEdgeStyle;rounded=0;orthogonalLoop=1;jettySize=auto;html=1;exitX=1;exitY=0.5;exitDx=0;exitDy=0;entryX=0;entryY=0.5;entryDx=0;entryDy=0;" edge="1" parent="1" source="N-FIcMtjWyn3FwL9XCdM-13" target="N-FIcMtjWyn3FwL9XCdM-14">
          <mxGeometry relative="1" as="geometry" />
        </mxCell>
        <mxCell id="N-FIcMtjWyn3FwL9XCdM-13" value="Testagem: equipa de orientação afirmou que a narrativa era muito complexa e irreal, para além de conter muitos cenários chocantes." style="rounded=1;whiteSpace=wrap;html=1;" vertex="1" parent="1">
          <mxGeometry x="1240" y="80" width="170" height="210" as="geometry" />
        </mxCell>
        <mxCell id="N-FIcMtjWyn3FwL9XCdM-33" style="edgeStyle=orthogonalEdgeStyle;rounded=0;orthogonalLoop=1;jettySize=auto;html=1;exitX=1;exitY=0.5;exitDx=0;exitDy=0;entryX=0;entryY=0.5;entryDx=0;entryDy=0;strokeWidth=6;" edge="1" parent="1" source="N-FIcMtjWyn3FwL9XCdM-14" target="N-FIcMtjWyn3FwL9XCdM-31">
          <mxGeometry relative="1" as="geometry">
            <Array as="points">
              <mxPoint x="1620" y="185" />
              <mxPoint x="1620" y="560" />
              <mxPoint x="810" y="560" />
              <mxPoint x="810" y="425" />
            </Array>
          </mxGeometry>
        </mxCell>
        <mxCell id="N-FIcMtjWyn3FwL9XCdM-14" value="Reflexão: primeira narrativa de jogo e conceptualização do protagonista abandonados." style="rounded=1;whiteSpace=wrap;html=1;" vertex="1" parent="1">
          <mxGeometry x="1430" y="80" width="170" height="210" as="geometry" />
        </mxCell>
        <mxCell id="N-FIcMtjWyn3FwL9XCdM-15" value="" style="endArrow=classic;startArrow=classic;html=1;rounded=0;" edge="1" parent="1">
          <mxGeometry width="50" height="50" relative="1" as="geometry">
            <mxPoint x="840" y="40" as="sourcePoint" />
            <mxPoint x="1670" y="40" as="targetPoint" />
          </mxGeometry>
        </mxCell>
        <mxCell id="N-FIcMtjWyn3FwL9XCdM-16" value="&lt;font style=&quot;font-size: 18px;&quot;&gt;NARRATIVA DE JOGO E PROTAGONISTA&lt;/font&gt;" style="edgeLabel;html=1;align=center;verticalAlign=middle;resizable=0;points=[];" vertex="1" connectable="0" parent="N-FIcMtjWyn3FwL9XCdM-15">
          <mxGeometry x="0.2599" y="-2" relative="1" as="geometry">
            <mxPoint x="-99" y="-22" as="offset" />
          </mxGeometry>
        </mxCell>
        <mxCell id="N-FIcMtjWyn3FwL9XCdM-26" style="edgeStyle=orthogonalEdgeStyle;rounded=0;orthogonalLoop=1;jettySize=auto;html=1;exitX=1;exitY=0.5;exitDx=0;exitDy=0;entryX=0;entryY=0.5;entryDx=0;entryDy=0;" edge="1" source="N-FIcMtjWyn3FwL9XCdM-31" target="N-FIcMtjWyn3FwL9XCdM-28" parent="1">
          <mxGeometry relative="1" as="geometry" />
        </mxCell>
        <mxCell id="N-FIcMtjWyn3FwL9XCdM-27" style="edgeStyle=orthogonalEdgeStyle;rounded=0;orthogonalLoop=1;jettySize=auto;html=1;exitX=1;exitY=0.5;exitDx=0;exitDy=0;entryX=0;entryY=0.5;entryDx=0;entryDy=0;" edge="1" source="N-FIcMtjWyn3FwL9XCdM-28" target="N-FIcMtjWyn3FwL9XCdM-30" parent="1">
          <mxGeometry relative="1" as="geometry" />
        </mxCell>
        <mxCell id="N-FIcMtjWyn3FwL9XCdM-28" value="Desenvolvimento: segunda narrativa de jogo e conceptualização do protagonista." style="rounded=1;whiteSpace=wrap;html=1;" vertex="1" parent="1">
          <mxGeometry x="1050" y="320" width="170" height="210" as="geometry" />
        </mxCell>
        <mxCell id="N-FIcMtjWyn3FwL9XCdM-29" style="edgeStyle=orthogonalEdgeStyle;rounded=0;orthogonalLoop=1;jettySize=auto;html=1;exitX=1;exitY=0.5;exitDx=0;exitDy=0;entryX=0;entryY=0.5;entryDx=0;entryDy=0;" edge="1" source="N-FIcMtjWyn3FwL9XCdM-30" target="N-FIcMtjWyn3FwL9XCdM-32" parent="1">
          <mxGeometry relative="1" as="geometry" />
        </mxCell>
        <mxCell id="N-FIcMtjWyn3FwL9XCdM-30" value="Testagem: equipa de orientação sem nenhum problema a apontar." style="rounded=1;whiteSpace=wrap;html=1;" vertex="1" parent="1">
          <mxGeometry x="1240" y="320" width="170" height="210" as="geometry" />
        </mxCell>
        <mxCell id="N-FIcMtjWyn3FwL9XCdM-31" value="Análise de literatura:&lt;br&gt;- Caracterização de personagem;&lt;br&gt;- Depressão." style="rounded=1;whiteSpace=wrap;html=1;" vertex="1" parent="1">
          <mxGeometry x="860" y="320" width="170" height="210" as="geometry" />
        </mxCell>
        <mxCell id="N-FIcMtjWyn3FwL9XCdM-43" style="edgeStyle=orthogonalEdgeStyle;rounded=0;orthogonalLoop=1;jettySize=auto;html=1;exitX=1;exitY=0.5;exitDx=0;exitDy=0;entryX=0;entryY=0.5;entryDx=0;entryDy=0;strokeWidth=6;" edge="1" parent="1" source="N-FIcMtjWyn3FwL9XCdM-32" target="N-FIcMtjWyn3FwL9XCdM-37">
          <mxGeometry relative="1" as="geometry" />
        </mxCell>
        <mxCell id="N-FIcMtjWyn3FwL9XCdM-32" value="Reflexão: segunda narrativa de jogo e conceptualização do protagonista aceites." style="rounded=1;whiteSpace=wrap;html=1;" vertex="1" parent="1">
          <mxGeometry x="1430" y="320" width="170" height="210" as="geometry" />
        </mxCell>
        <mxCell id="N-FIcMtjWyn3FwL9XCdM-34" value="" style="endArrow=classic;startArrow=classic;html=1;rounded=0;" edge="1" parent="1">
          <mxGeometry width="50" height="50" relative="1" as="geometry">
            <mxPoint x="1670" y="40" as="sourcePoint" />
            <mxPoint x="2450" y="40" as="targetPoint" />
          </mxGeometry>
        </mxCell>
        <mxCell id="N-FIcMtjWyn3FwL9XCdM-35" value="&lt;font style=&quot;font-size: 18px;&quot;&gt;IMPLEMENTAÇÃO DO JOGO DIGITAL&lt;/font&gt;" style="edgeLabel;html=1;align=center;verticalAlign=middle;resizable=0;points=[];" vertex="1" connectable="0" parent="N-FIcMtjWyn3FwL9XCdM-34">
          <mxGeometry x="0.2599" y="-2" relative="1" as="geometry">
            <mxPoint x="-62" y="-22" as="offset" />
          </mxGeometry>
        </mxCell>
        <mxCell id="N-FIcMtjWyn3FwL9XCdM-36" style="edgeStyle=orthogonalEdgeStyle;rounded=0;orthogonalLoop=1;jettySize=auto;html=1;exitX=1;exitY=0.5;exitDx=0;exitDy=0;entryX=0;entryY=0.5;entryDx=0;entryDy=0;" edge="1" source="N-FIcMtjWyn3FwL9XCdM-37" target="N-FIcMtjWyn3FwL9XCdM-39" parent="1">
          <mxGeometry relative="1" as="geometry" />
        </mxCell>
        <mxCell id="N-FIcMtjWyn3FwL9XCdM-37" value="Análise de literatura:&lt;br&gt;- Caracterização de personagem (personalidade, arquétipos);&lt;br&gt;- Jogo digital (Visual Novel e jogos de aventura);&lt;br&gt;- Empatia (de traço e induzida);&lt;br&gt;Depressão (ligações a outros conceitos)." style="rounded=1;whiteSpace=wrap;html=1;" vertex="1" parent="1">
          <mxGeometry x="1710" y="80" width="170" height="210" as="geometry" />
        </mxCell>
        <mxCell id="N-FIcMtjWyn3FwL9XCdM-38" style="edgeStyle=orthogonalEdgeStyle;rounded=0;orthogonalLoop=1;jettySize=auto;html=1;exitX=1;exitY=0.5;exitDx=0;exitDy=0;entryX=0;entryY=0.5;entryDx=0;entryDy=0;" edge="1" source="N-FIcMtjWyn3FwL9XCdM-39" target="N-FIcMtjWyn3FwL9XCdM-41" parent="1">
          <mxGeometry relative="1" as="geometry" />
        </mxCell>
        <mxCell id="N-FIcMtjWyn3FwL9XCdM-39" value="Desenvolvimento: primeiro protótipo do jogo." style="rounded=1;whiteSpace=wrap;html=1;" vertex="1" parent="1">
          <mxGeometry x="1900" y="80" width="170" height="210" as="geometry" />
        </mxCell>
        <mxCell id="N-FIcMtjWyn3FwL9XCdM-40" style="edgeStyle=orthogonalEdgeStyle;rounded=0;orthogonalLoop=1;jettySize=auto;html=1;exitX=1;exitY=0.5;exitDx=0;exitDy=0;entryX=0;entryY=0.5;entryDx=0;entryDy=0;" edge="1" source="N-FIcMtjWyn3FwL9XCdM-41" target="N-FIcMtjWyn3FwL9XCdM-42" parent="1">
          <mxGeometry relative="1" as="geometry" />
        </mxCell>
        <mxCell id="N-FIcMtjWyn3FwL9XCdM-41" value="Testagem: equipa de orientação afirmou que o protótipo podia ser avaliado/testado por especialistas e jogadores." style="rounded=1;whiteSpace=wrap;html=1;" vertex="1" parent="1">
          <mxGeometry x="2090" y="80" width="170" height="210" as="geometry" />
        </mxCell>
        <mxCell id="N-FIcMtjWyn3FwL9XCdM-42" value="Reflexão: primeira versão do jogo aceite." style="rounded=1;whiteSpace=wrap;html=1;" vertex="1" parent="1">
          <mxGeometry x="2280" y="80" width="170" height="210" as="geometry" />
        </mxCell>
        <mxCell id="N-FIcMtjWyn3FwL9XCdM-46" value="" style="shape=flexArrow;endArrow=classic;startArrow=classic;html=1;rounded=0;strokeWidth=7;width=130.58823529411765;startSize=22.666666666666668;endSize=22.666666666666668;startWidth=0;endWidth=0;" edge="1" parent="1">
          <mxGeometry width="100" height="100" relative="1" as="geometry">
            <mxPoint x="1700" y="680" as="sourcePoint" />
            <mxPoint x="2620" y="680" as="targetPoint" />
          </mxGeometry>
        </mxCell>
        <mxCell id="N-FIcMtjWyn3FwL9XCdM-47" value="&lt;font style=&quot;font-size: 65px;&quot;&gt;PRODUÇÃO&lt;/font&gt;" style="edgeLabel;html=1;align=center;verticalAlign=middle;resizable=0;points=[];" vertex="1" connectable="0" parent="N-FIcMtjWyn3FwL9XCdM-46">
          <mxGeometry x="-0.1233" y="-1" relative="1" as="geometry">
            <mxPoint x="86" y="-1" as="offset" />
          </mxGeometry>
        </mxCell>
        <mxCell id="N-FIcMtjWyn3FwL9XCdM-48" value="" style="shape=flexArrow;endArrow=classic;startArrow=classic;html=1;rounded=0;strokeWidth=7;width=130.58823529411765;startSize=22.666666666666668;endSize=22.666666666666668;startWidth=0;endWidth=0;" edge="1" parent="1">
          <mxGeometry width="100" height="100" relative="1" as="geometry">
            <mxPoint x="2630" y="680" as="sourcePoint" />
            <mxPoint x="3550" y="680" as="targetPoint" />
          </mxGeometry>
        </mxCell>
        <mxCell id="N-FIcMtjWyn3FwL9XCdM-49" value="&lt;font style=&quot;font-size: 65px;&quot;&gt;TESTAGEM&lt;/font&gt;" style="edgeLabel;html=1;align=center;verticalAlign=middle;resizable=0;points=[];" vertex="1" connectable="0" parent="N-FIcMtjWyn3FwL9XCdM-48">
          <mxGeometry x="-0.1233" y="-1" relative="1" as="geometry">
            <mxPoint x="86" y="-1" as="offset" />
          </mxGeometry>
        </mxCell>
      </root>
    </mxGraphModel>
  </diagram>
</mxfile>
